<svg xmlns="http://www.w3.org/2000/svg" version="1.1" xmlns:xlink="http://www.w3.org/1999/xlink" xmlns:svgjs="http://svgjs.dev/svgjs" width="1000" height="1000" viewBox="0 0 1000 1000"><rect width="1000" height="1000" fill="#000000"></rect><g transform="matrix(0.7,0,0,0.7,149.57575757575756,349.8570582588317)"><svg viewBox="0 0 396 170" data-background-color="#ecab55" preserveAspectRatio="xMidYMid meet" height="429" width="1000" xmlns="http://www.w3.org/2000/svg" xmlns:xlink="http://www.w3.org/1999/xlink"><g id="tight-bounds" transform="matrix(1,0,0,1,0.2400000000000091,-0.003995684320301507)"><svg viewBox="0 0 395.52 170.0079913686406" height="170.0079913686406" width="395.52"><g><svg viewBox="0 0 852.9965920622568 366.64704" height="170.0079913686406" width="395.52"><g transform="matrix(1,0,0,1,457.4765920622568,78.5327852451362)"><svg viewBox="0 0 395.52 209.5814695097276" height="209.5814695097276" width="395.52"><g id="textblocktransform"><svg viewBox="0 0 395.52 209.5814695097276" height="209.5814695097276" width="395.52" id="textblock"><g><svg viewBox="0 0 395.52 153.8988326848249" height="153.8988326848249" width="395.52"><g transform="matrix(1,0,0,1,0,0)"><svg width="395.52" viewBox="-0.3 -36 128.49 50" height="153.8988326848249" data-palette-color="#ffffff"><path d="M10.15 4.35L10.15 4.35Q7.45 4.35 5.05 3.38 2.65 2.4 1.18 0.4-0.3-1.6-0.3-4.6L-0.3-4.6Q-0.3-7.2 0.73-8.65 1.75-10.1 3.25-10.7 4.75-11.3 6.1-11.3L6.1-11.3Q4.75-9.85 4.05-8.1 3.35-6.35 3.35-4.6L3.35-4.6Q3.35-2.75 4.17-1.15 5 0.45 6.7 1.43 8.4 2.4 11 2.4L11 2.4Q13.25 2.4 15.4 1.58 17.55 0.75 18.93-0.88 20.3-2.5 20.3-4.9L20.3-4.9Q20.3-7.05 19.2-8.6 18.1-10.15 16.38-11.35 14.65-12.55 12.7-13.65 10.75-14.75 9.03-15.98 7.3-17.2 6.2-18.8 5.1-20.4 5.1-22.65L5.1-22.65Q5.1-24.75 6.1-27.05 7.1-29.35 8.97-31.4 10.85-33.45 13.48-34.73 16.1-36 19.35-36L19.35-36Q22.3-36 23.45-34.58 24.6-33.15 24.6-31L24.6-31Q24.6-29.2 23.98-27.13 23.35-25.05 22.45-23.18 21.55-21.3 20.75-20L20.75-20Q19.85-20.2 19.48-20.78 19.1-21.35 19.1-22.15L19.1-22.15Q19.1-23.2 19.55-24.55 20-25.9 20.58-27.35 21.15-28.8 21.6-30.18 22.05-31.55 22.05-32.65L22.05-32.65Q22.05-33.65 21.45-34.23 20.85-34.8 19.25-34.8L19.25-34.8Q16.9-34.8 14.9-33.7 12.9-32.6 11.4-30.88 9.9-29.15 9.08-27.25 8.25-25.35 8.25-23.8L8.25-23.8Q8.25-21.95 9.33-20.63 10.4-19.3 12.1-18.23 13.8-17.15 15.73-16.07 17.65-15 19.35-13.7 21.05-12.4 22.13-10.63 23.2-8.85 23.2-6.3L23.2-6.3Q23.2-3.7 22.05-1.73 20.9 0.25 18.98 1.6 17.05 2.95 14.75 3.65 12.45 4.35 10.15 4.35ZM23.65 14L23.65 14Q23.25 14 22.87 13.58 22.5 13.15 22.3 12.68 22.1 12.2 22.1 12.1L22.1 12.1Q22.8 9.65 23.47 7.73 24.15 5.8 24.82 3.78 25.5 1.75 26.15-0.98 26.8-3.7 27.5-7.75 28.2-11.8 28.9-17.8L28.9-17.8Q28.95-18.25 29.1-18.45 29.25-18.65 29.85-18.65L29.85-18.65Q31.15-18.65 31.7-17.93 32.25-17.2 32.25-16.35L32.25-16.35Q32.25-15.65 31.95-13.85 31.65-12.05 31.1-9.6L31.1-9.6Q31.95-11.25 33.22-12.95 34.5-14.65 36.15-15.8 37.8-16.95 39.75-16.95L39.75-16.95Q41.95-16.95 43.37-15.38 44.8-13.8 44.8-11.25L44.8-11.25Q44.8-9.3 43.92-7.13 43.05-4.95 41.47-3.03 39.9-1.1 37.75 0.1 35.6 1.3 33 1.3L33 1.3Q31.7 1.3 30.9 1 30.1 0.7 30.1 0.4L30.1 0.4Q30.1 0.2 30.47 0.18 30.85 0.15 31.35 0.15L31.35 0.15Q33.35 0.15 35.17-0.83 37-1.8 38.45-3.4 39.9-5 40.72-6.95 41.55-8.9 41.55-10.8L41.55-10.8Q41.55-12.4 40.87-13.53 40.2-14.65 38.7-14.65L38.7-14.65Q37.4-14.65 36.12-13.83 34.85-13 33.72-11.73 32.6-10.45 31.72-9.08 30.85-7.7 30.4-6.6L30.4-6.6Q29.5-2.85 28.6 0.63 27.7 4.1 26.87 6.93 26.05 9.75 25.37 11.55 24.7 13.35 24.25 13.75L24.25 13.75Q24 14 23.65 14ZM48.74 2.35L48.74 2.35Q47.2 2.35 46.12 1.33 45.05 0.3 45.05-1.8L45.05-1.8Q45.05-3.6 45.84-5.68 46.64-7.75 48.05-9.78 49.45-11.8 51.22-13.48 52.99-15.15 54.97-16.15 56.95-17.15 58.89-17.15L58.89-17.15Q60.84-17.15 62.14-16.13 63.45-15.1 63.45-13.4L63.45-13.4Q63.45-12.15 62.77-11.7 62.09-11.25 60.99-11.25L60.99-11.25Q61.09-11.65 61.17-12.13 61.24-12.6 61.24-13L61.24-13Q61.24-14.15 60.7-14.98 60.14-15.8 58.8-15.8L58.8-15.8Q57.39-15.8 55.95-14.83 54.49-13.85 53.14-12.23 51.8-10.6 50.74-8.7 49.7-6.8 49.09-4.95 48.49-3.1 48.49-1.65L48.49-1.65Q48.49 0.3 49.84 0.3L49.84 0.3Q50.99 0.3 52.34-0.78 53.7-1.85 55.12-3.53 56.55-5.2 57.84-7 59.14-8.8 60.14-10.3L60.14-10.3Q60.34-10.6 60.39-10.6L60.39-10.6Q60.7-10.55 61.17-10.4 61.64-10.25 61.99-10 62.34-9.75 62.34-9.35L62.34-9.35Q62.34-8.9 61.89-8.13 61.45-7.35 60.89-6.35 60.34-5.35 59.89-4.33 59.45-3.3 59.45-2.4L59.45-2.4Q59.45-1.65 59.84-0.93 60.24-0.2 61.14-0.2L61.14-0.2Q62.5-0.2 64.69-2.18 66.89-4.15 69.14-8.1L69.14-8.1 69.64-7.6Q68.59-4.9 66.94-2.85 65.3-0.8 63.42 0.35 61.55 1.5 59.74 1.5L59.74 1.5Q57.89 1.5 57.02 0.4 56.14-0.7 56.14-2L56.14-2Q56.14-2.3 56.2-2.68 56.24-3.05 56.3-3.45L56.3-3.45Q54.14-0.55 52.37 0.9 50.59 2.35 48.74 2.35ZM76.79 1.3L76.79 1.3Q75.09 1.3 74.12 0.4 73.14-0.5 73.14-1.95L73.14-1.95Q73.14-3.45 73.84-5.1 74.54-6.75 75.22-8.38 75.89-10 75.89-11.3L75.89-11.3Q75.89-12.9 74.97-13.68 74.04-14.45 73.09-15.1L73.09-15.1Q71.94-12.15 70.69-9.5 69.44-6.85 68.64-5.5L68.64-5.5 68.19-6.35Q68.89-7.65 70.02-10.15 71.14-12.65 72.24-15.85L72.24-15.85Q71.74-16.35 71.74-17.05L71.74-17.05Q71.74-18.55 72.59-19.5 73.44-20.45 73.84-20.45L73.84-20.45Q74.39-20.45 74.47-19.98 74.54-19.5 74.54-19.25L74.54-19.25Q74.54-19 74.27-18.28 73.99-17.55 73.99-17.4L73.99-17.4Q73.99-16.7 74.77-16.13 75.54-15.55 76.54-14.83 77.54-14.1 78.32-13.08 79.09-12.05 79.09-10.45L79.09-10.45Q79.09-8.95 78.47-7.4 77.84-5.85 77.22-4.45 76.59-3.05 76.59-2L76.59-2Q76.59-1.1 77.04-0.8 77.49-0.5 78.09-0.5L78.09-0.5Q79.29-0.5 80.57-1.25 81.84-2 83.04-3.15 84.24-4.3 85.19-5.58 86.14-6.85 86.59-7.95L86.59-7.95 87.24-7.45Q86.29-5.35 84.64-3.33 82.99-1.3 80.97 0 78.94 1.3 76.79 1.3ZM90.79 2.55L90.79 2.55Q88.44 2.55 87.07 1.53 85.69 0.5 85.12-1 84.54-2.5 84.54-4L84.54-4Q84.54-5.5 84.94-6.3 85.34-7.1 85.92-7.5 86.49-7.9 87.02-8.1 87.54-8.3 87.74-8.5L87.74-8.5Q89.24-10.15 90.49-11.95 91.74-13.75 92.69-15.75L92.69-15.75 92.69-16.35Q92.69-18.2 93.32-18.98 93.94-19.75 94.64-19.75L94.64-19.75Q95.04-19.75 95.24-19.55 95.44-19.35 95.44-19.1L95.44-19.1Q95.44-18.85 95.29-18.3 95.14-17.75 95.14-16.9L95.14-16.9Q95.14-15.25 95.79-13.33 96.44-11.4 97.09-9.28 97.74-7.15 97.74-4.85L97.74-4.85Q97.74-4.2 97.67-3.58 97.59-2.95 97.44-2.4L97.44-2.4Q99.19-2.7 100.74-3.98 102.29-5.25 103.74-8.05L103.74-8.05 104.19-7.55Q103.24-4.8 101.34-3.38 99.44-1.95 97.19-1.6L97.19-1.6Q96.39 0.55 94.67 1.55 92.94 2.55 90.79 2.55ZM90.89 0.8L90.89 0.8Q91.49 0.8 92.49 0.4 93.49 0 94.04-1.65L94.04-1.65Q91.94-2.05 90.32-3.3 88.69-4.55 87.89-5.8L87.89-5.8Q86.79-5.75 86.79-4.05L86.79-4.05Q86.79-2.25 87.87-0.73 88.94 0.8 90.89 0.8ZM94.29-2.45L94.29-2.45Q94.39-2.95 94.44-3.5 94.49-4.05 94.49-4.8L94.49-4.8Q94.49-7.15 93.92-9.47 93.34-11.8 92.94-13.85L92.94-13.85Q91.79-11.95 90.52-10.23 89.24-8.5 88.09-7.35L88.09-7.35Q88.84-5.75 90.42-4.35 91.99-2.95 94.29-2.45ZM105.14 1.9L105.14 1.9Q104.19 1.9 103.64 0.3 103.09-1.3 103.09-3.3L103.09-3.3Q103.09-5.7 103.89-9 104.69-12.3 105.99-15.95 107.29-19.6 108.91-23.1 110.54-26.6 112.24-29.45 113.94-32.3 115.44-34 116.94-35.7 118.04-35.7L118.04-35.7Q118.94-35.7 119.31-34.63 119.69-33.55 119.69-32.55L119.69-32.55Q119.69-31.15 119.06-29.15 118.44-27.15 117.34-24.88 116.24-22.6 114.79-20.4 113.34-18.2 111.64-16.38 109.94-14.55 108.19-13.5L108.19-13.5Q107.59-12.05 107.16-10.25 106.74-8.45 106.54-6.73 106.34-5 106.34-3.65L106.34-3.65Q106.34-3.1 106.36-2.7 106.39-2.3 106.44-1.95L106.44-1.95Q107.14-4 107.96-5.93 108.79-7.85 109.74-9.47 110.69-11.1 111.76-12.33 112.84-13.55 114.04-14.23 115.24-14.9 116.59-14.9L116.59-14.9Q117.99-14.9 118.81-14.23 119.64-13.55 120.01-12.53 120.39-11.5 120.39-10.4L120.39-10.4Q120.39-8.85 119.86-7.4 119.34-5.95 118.79-4.6 118.24-3.25 118.24-2L118.24-2Q118.24-1 118.66-0.55 119.09-0.1 119.74-0.1L119.74-0.1Q120.89-0.1 122.31-1.2 123.74-2.3 125.14-4.13 126.54-5.95 127.54-8.1L127.54-8.1 128.19-7.5Q127.14-5.05 125.64-3.08 124.14-1.1 122.34 0.05 120.54 1.2 118.59 1.2L118.59 1.2Q116.89 1.2 116.01 0.3 115.14-0.6 115.14-1.95L115.14-1.95Q115.14-3 115.54-4.3 115.94-5.6 116.31-6.95 116.69-8.3 116.69-9.5L116.69-9.5Q116.69-10.8 116.14-11.35 115.59-11.9 114.79-11.9L114.79-11.9Q113.54-11.9 112.54-10.9 111.54-9.9 110.71-8.33 109.89-6.75 109.16-5 108.44-3.25 107.79-1.68 107.14-0.1 106.49 0.9 105.84 1.9 105.14 1.9ZM108.84-15.45L108.84-15.45Q110.24-16.55 111.56-18.25 112.89-19.95 114.04-21.88 115.19-23.8 116.09-25.65 116.99-27.5 117.49-29 117.99-30.5 117.99-31.25L117.99-31.25Q117.99-31.5 117.94-31.58 117.89-31.65 117.79-31.65L117.79-31.65Q117.44-31.65 116.36-30.28 115.29-28.9 113.89-26.6 112.49-24.3 111.14-21.4 109.79-18.5 108.84-15.45Z" opacity="1" transform="matrix(1,0,0,1,0,0)" fill="#ffffff" class="wordmark-text-0" data-fill-palette-color="primary" id="text-0"></path></svg></g></svg></g><g transform="matrix(1,0,0,1,0,190.23065350972763)"><svg viewBox="0 0 232.209792 19.350815999999995" height="19.350815999999995" width="232.209792"><g transform="matrix(1,0,0,1,0,0)"><svg width="232.209792" viewBox="2.5 -36.25 559.74 46.65" height="19.350815999999995" data-palette-color="#ffffff"><path d="M12.8-22.25Q11.35-19.55 10.93-18 10.5-16.45 10.2-14.3L10.2-14.3Q10.7-14.3 11.85-14.33 13-14.35 13.35-14.4L13.35-14.4 16.2-15Q17.25-15.25 18.05-15.43 18.85-15.6 21-15.95L21-15.95Q21.95-16.1 23.05-16.15 24.15-16.2 24.5-16.2L24.5-16.2Q25.7-16.2 26.3-16.25L26.3-16.25Q27.15-16.25 27.5-15.95L27.5-15.95Q28.95-14.7 28.95-13.8L28.95-13.8Q28.95-13.2 28.5-12.95 28.05-12.7 27.1-12.4L27.1-12.4 22.45-11.4 12.75-8.75Q12.5-8.7 12.28-8.58 12.05-8.45 11.8-8.4L11.8-8.4Q10.2-8.05 9.68-7.83 9.15-7.6 9.03-7.05 8.9-6.5 8.9-4.9L8.9-4.9 8.9-2.9Q8.9-1.55 8.8-0.85L8.8-0.85Q8.5 1.65 6.95 1.65L6.95 1.65Q6.1 1.65 5 1L5 1Q3.75 0.25 3.13-0.68 2.5-1.6 2.5-2.85L2.5-2.85Q2.5-3.3 2.55-3.55L2.55-3.55Q2.95-7.05 3.1-8.75L3.1-8.75Q3.25-10.2 3.5-12.43 3.75-14.65 4.15-17.6L4.15-17.6Q4.8-22.25 7.43-25.8 10.05-29.35 14.35-32.3L14.35-32.3Q18.6-35.25 22.85-36.05L22.85-36.05Q23.7-36.25 24.8-36.25L24.8-36.25Q28.1-36.25 30.45-33.75L30.45-33.75Q31.4-32.8 31.4-32.1L31.4-32.1Q31.4-31.8 31.15-31.3L31.15-31.3Q30.5-30.25 29.35-30.25L29.35-30.25Q28.95-30.25 28.5-30.4L28.5-30.4Q28.25-30.5 27.88-30.6 27.5-30.7 27.3-30.8L27.3-30.8Q26.45-31.4 25.35-31.4L25.35-31.4Q23.85-31.85 22-30.85 20.15-29.85 16.95-27.35L16.95-27.35Q15.25-26.1 14-24.5L14-24.5 12.8-22.25ZM41.1-7.8Q40.6-7.5 39.65-7.5L39.65-7.5Q39.3-7.5 38.8-7.55 38.3-7.6 37.95-7.55L37.95-7.55Q38.35-5.9 39.85-4.88 41.35-3.85 43.2-3.85L43.2-3.85Q44.8-3.85 46.05-4.55L46.05-4.55Q47.9-5.5 49.25-6.8L49.25-6.8Q50.2-7.75 51.05-7.75L51.05-7.75Q51.6-7.75 52-7.2L52-7.2Q52.4-6.55 52.4-5.6L52.4-5.6Q52.4-4.6 52-4.05L52-4.05Q50.7-2.05 48.62-1.3 46.55-0.55 43.8-0.55L43.8-0.55Q40.95-0.55 38.3-1.8 35.65-3.05 33.77-5.23 31.9-7.4 31.3-10.05L31.3-10.05Q30.9-11.6 30.9-13.1L30.9-13.1Q30.9-15.45 32.22-16.9 33.55-18.35 36.5-19.65L36.5-19.65Q39.2-20.8 41.5-20.8L41.5-20.8Q43.15-20.8 44.7-20.3L44.7-20.3Q49.5-18.8 49.5-16.2L49.5-16.2Q49.5-14.55 47.55-12.2L47.55-12.2Q46.6-11.1 45.3-10.25 44-9.4 42.77-8.72 41.55-8.05 41.1-7.8L41.1-7.8ZM43.2-17.05Q43.15-17.3 42.82-17.48 42.5-17.65 42.45-17.7L42.45-17.7Q41.1-17.8 39.7-16.93 38.3-16.05 37.37-14.7 36.45-13.35 36.45-12.1L36.45-12.1 36.5-11.7Q36.55-11.5 37.02-11.2 37.5-10.9 37.6-11L37.6-11Q41.15-13.65 42.95-15.25L42.95-15.25Q43.25-15.55 43.25-16.35L43.25-16.35Q43.25-16.85 43.2-17.05L43.2-17.05ZM63-7.8Q62.5-7.5 61.55-7.5L61.55-7.5Q61.2-7.5 60.7-7.55 60.2-7.6 59.85-7.55L59.85-7.55Q60.25-5.9 61.75-4.88 63.25-3.85 65.09-3.85L65.09-3.85Q66.7-3.85 67.95-4.55L67.95-4.55Q69.8-5.5 71.15-6.8L71.15-6.8Q72.09-7.75 72.95-7.75L72.95-7.75Q73.5-7.75 73.9-7.2L73.9-7.2Q74.3-6.55 74.3-5.6L74.3-5.6Q74.3-4.6 73.9-4.05L73.9-4.05Q72.59-2.05 70.52-1.3 68.45-0.55 65.7-0.55L65.7-0.55Q62.85-0.55 60.2-1.8 57.55-3.05 55.67-5.23 53.8-7.4 53.2-10.05L53.2-10.05Q52.8-11.6 52.8-13.1L52.8-13.1Q52.8-15.45 54.12-16.9 55.45-18.35 58.4-19.65L58.4-19.65Q61.1-20.8 63.4-20.8L63.4-20.8Q65.05-20.8 66.59-20.3L66.59-20.3Q71.4-18.8 71.4-16.2L71.4-16.2Q71.4-14.55 69.45-12.2L69.45-12.2Q68.5-11.1 67.2-10.25 65.9-9.4 64.67-8.72 63.45-8.05 63-7.8L63-7.8ZM65.09-17.05Q65.05-17.3 64.72-17.48 64.4-17.65 64.34-17.7L64.34-17.7Q63-17.8 61.6-16.93 60.2-16.05 59.27-14.7 58.35-13.35 58.35-12.1L58.35-12.1 58.4-11.7Q58.45-11.5 58.92-11.2 59.4-10.9 59.5-11L59.5-11Q63.05-13.65 64.84-15.25L64.84-15.25Q65.15-15.55 65.15-16.35L65.15-16.35Q65.15-16.85 65.09-17.05L65.09-17.05ZM83.04-2.3Q84.04-3.5 84.49-4.2L84.49-4.2Q85.04-4.95 85.64-4.95L85.64-4.95Q86.24-4.95 86.54-4.2L86.54-4.2Q87.24-2.2 87.24-1.05L87.24-1.05Q87.24-0.55 87.19-0.3L87.19-0.3Q86.99 0.7 86.07 1.1 85.14 1.5 83.89 1.4L83.89 1.4Q83.44 1.4 82.37 1.4 81.29 1.4 80.52 1.1 79.74 0.8 79.14 0.1L79.14 0.1Q77.84-1.45 77.84-2.9L77.84-2.9Q77.84-14.6 77.74-20.5L77.74-20.5 77.69-29.3Q77.69-31.05 77.34-32.5L77.34-32.5Q77.29-32.75 77.29-33.1L77.29-33.1Q77.29-34.95 79.79-34.95L79.79-34.95Q81.44-34.95 82.57-33.88 83.69-32.8 83.59-31.05L83.59-31.05Q83.44-28.4 83.19-23.1L83.19-23.1 82.89-17.1Q82.49-8.6 82.34-4.35L82.34-4.35Q82.29-3.85 82.39-3.25 82.49-2.65 82.54-2.5L82.54-2.5 83.04-2.3ZM94.09-7.8Q94.24-8.05 95.19-8.15L95.19-8.15Q96.74-8.3 98.29-7.98 99.84-7.65 99.69-6.85L99.69-6.85Q99.34-5 98.44-2.9L98.44-2.9Q98.24-2.4 97.94-1.45L97.94-1.45Q95.74 5.45 90.59 10.4L90.59 10.4Q90.44 10.1 89.54 9.65 88.64 9.2 88.69 9.1L88.69 9.1Q89.59 7.3 90.34 3.7L90.34 3.7 91.99-1.7Q92.09-2 92.24-2.98 92.39-3.95 92.84-5.23 93.29-6.5 94.09-7.8L94.09-7.8ZM138.54-35.6Q139.79-35.1 139.79-34.2L139.79-34.2Q139.79-33.3 138.54-31.9L138.54-31.9Q137.99-31.95 136.94-31.95L136.94-31.95Q134.64-31.95 132.54-31.33 130.44-30.7 128.19-29.4L128.19-29.4Q127.14-28.75 126.39-27.75L126.39-27.75Q125.84-27.15 125.84-26.35L125.84-26.35Q125.84-25 127.34-23.75L127.34-23.75Q128.79-22.25 132.09-18.3L132.09-18.3 133.24-17.1Q135.69-14.45 137.11-12.6 138.54-10.75 139.54-8.35L139.54-8.35Q139.94-7.3 139.94-6.45L139.94-6.45Q139.94-4.3 138.29-2.5L138.29-2.5Q136.39-0.4 133.89 0.58 131.39 1.55 128.24 1.8L128.24 1.8Q127.84 1.85 127.29 1.9 126.74 1.95 126.04 1.95L126.04 1.95Q125.59 1.95 124.69 1.85L124.69 1.85Q123.59 1.9 122.39 1.48 121.19 1.05 120.19 0.25L120.19 0.25Q118.29-1.35 118.29-3.3L118.29-3.3Q118.29-4.95 119.69-6.65L119.69-6.65Q120.39-6.55 120.51-6.23 120.64-5.9 120.56-5.5 120.49-5.1 120.49-4.85L120.49-4.85Q120.49-4.7 120.59-4.4L120.59-4.4Q122.54-3.5 125.24-3.5L125.24-3.5Q128.24-3.5 130.91-4.53 133.59-5.55 134.19-7.05L134.19-7.05Q134.54-8.05 132.49-10.58 130.44-13.1 127.89-15.5L127.89-15.5Q125.49-17.65 123.54-19.75L123.54-19.75Q122.44-20.95 121.81-22.53 121.19-24.1 121.19-25.8L121.19-25.8Q121.19-28.1 122.36-30.15 123.54-32.2 125.89-33.5L125.89-33.5Q130.39-36.05 135.09-36.05L135.09-36.05Q135.74-36.05 136.94-35.95L136.94-35.95Q138.04-35.85 138.54-35.6L138.54-35.6ZM154.03-7.8Q153.53-7.5 152.58-7.5L152.58-7.5Q152.23-7.5 151.73-7.55 151.23-7.6 150.88-7.55L150.88-7.55Q151.28-5.9 152.78-4.88 154.28-3.85 156.13-3.85L156.13-3.85Q157.73-3.85 158.98-4.55L158.98-4.55Q160.83-5.5 162.18-6.8L162.18-6.8Q163.13-7.75 163.98-7.75L163.98-7.75Q164.53-7.75 164.93-7.2L164.93-7.2Q165.33-6.55 165.33-5.6L165.33-5.6Q165.33-4.6 164.93-4.05L164.93-4.05Q163.63-2.05 161.56-1.3 159.48-0.55 156.73-0.55L156.73-0.55Q153.88-0.55 151.23-1.8 148.58-3.05 146.71-5.23 144.83-7.4 144.23-10.05L144.23-10.05Q143.83-11.6 143.83-13.1L143.83-13.1Q143.83-15.45 145.16-16.9 146.48-18.35 149.43-19.65L149.43-19.65Q152.13-20.8 154.43-20.8L154.43-20.8Q156.08-20.8 157.63-20.3L157.63-20.3Q162.43-18.8 162.43-16.2L162.43-16.2Q162.43-14.55 160.48-12.2L160.48-12.2Q159.53-11.1 158.23-10.25 156.93-9.4 155.71-8.72 154.48-8.05 154.03-7.8L154.03-7.8ZM156.13-17.05Q156.08-17.3 155.76-17.48 155.43-17.65 155.38-17.7L155.38-17.7Q154.03-17.8 152.63-16.93 151.23-16.05 150.31-14.7 149.38-13.35 149.38-12.1L149.38-12.1 149.43-11.7Q149.48-11.5 149.96-11.2 150.43-10.9 150.53-11L150.53-11Q154.08-13.65 155.88-15.25L155.88-15.25Q156.18-15.55 156.18-16.35L156.18-16.35Q156.18-16.85 156.13-17.05L156.13-17.05ZM176.33-18.85Q176.33-18.55 176.23-18.07 176.13-17.6 176.18-17.45L176.18-17.45Q179.63-18.2 182.03-18.2L182.03-18.2Q185.78-18.2 187.68-14.6L187.68-14.6Q189.23-11.55 189.23-7.85L189.23-7.85Q189.23-6.9 189.03-5.1L189.03-5.1Q188.88-3.9 188.08-3.18 187.28-2.45 186.18-2.45L186.18-2.45Q185.03-2.45 184.56-2.88 184.08-3.3 184.01-3.85 183.93-4.4 183.93-5.6L183.93-5.6 183.88-6.65Q183.78-9.65 183.48-11.85L183.48-11.85Q183.33-12.75 182.81-13.13 182.28-13.5 181.43-13.5L181.43-13.5Q180.63-13.5 179.53-13.25L179.53-13.25Q177.83-12.8 177.26-12.55 176.68-12.3 175.58-11.5L175.58-11.5Q175.23-11.25 175.08-10.5 174.93-9.75 174.93-9.65L174.93-9.65Q174.28-6.45 173.53-2L173.53-2Q173.48-1.8 173.33-1.05 173.18-0.3 172.76 0.03 172.33 0.35 171.53 0.25L171.53 0.25Q168.38-0.15 168.33-2.4L168.33-2.4Q168.28-5.3 168.78-9.25L168.78-9.25Q169.13-12.1 169.43-13.85L169.43-13.85Q169.53-14.65 169.71-15.8 169.88-16.95 170.03-18.45L170.03-18.45Q170.18-19.6 170.33-20.15 170.48-20.7 171.03-21.08 171.58-21.45 172.73-21.45L172.73-21.45Q174.18-21.45 175.13-20.8 176.08-20.15 176.33-18.95L176.33-18.95 176.33-18.85ZM198.43 1.1Q194.23 1.1 193.08-2.5L193.08-2.5Q193.48-2.5 194.15-2.48 194.83-2.45 195.28-2.35L195.28-2.35Q195.98-2.25 196.28-2.25L196.28-2.25Q198.53-2.25 200.03-4.25L200.03-4.25Q201.08-5.7 201.08-7.2L201.08-7.2Q201.08-8.2 200.58-9.15L200.58-9.15Q199.48-11.1 197.88-13.45L197.88-13.45Q196.83-15 195.98-16.4L195.98-16.4Q194.98-18 194.98-19.95L194.98-19.95Q194.98-21.75 196-23.13 197.03-24.5 199.03-24.85L199.03-24.85 200.63-25.15Q203.23-25.65 204.53-25.65L204.53-25.65Q206.68-25.65 208.33-24.65L208.33-24.65Q208.68-24.4 209.05-23.78 209.43-23.15 209.63-22.8L209.63-22.8Q209.28-22.65 208.65-22.33 208.03-22 207.58-21.95L207.58-21.95Q206.88-21.85 205.48-21.85L205.48-21.85Q204.13-21.85 203.43-21.8L203.43-21.8Q201.83-21.65 200.9-20.73 199.98-19.8 199.98-18.5L199.98-18.5Q199.98-17.5 200.58-16.45L200.58-16.45Q201.93-14.2 204.33-11.3L204.33-11.3Q206.13-9.05 206.13-6.65L206.13-6.65Q206.13-5.35 205.53-3.9L205.53-3.9Q203.48 1.1 198.43 1.1L198.43 1.1ZM220.28-7.8Q219.78-7.5 218.83-7.5L218.83-7.5Q218.48-7.5 217.98-7.55 217.48-7.6 217.13-7.55L217.13-7.55Q217.53-5.9 219.03-4.88 220.53-3.85 222.38-3.85L222.38-3.85Q223.98-3.85 225.23-4.55L225.23-4.55Q227.08-5.5 228.43-6.8L228.43-6.8Q229.38-7.75 230.23-7.75L230.23-7.75Q230.78-7.75 231.18-7.2L231.18-7.2Q231.58-6.55 231.58-5.6L231.58-5.6Q231.58-4.6 231.18-4.05L231.18-4.05Q229.88-2.05 227.8-1.3 225.73-0.55 222.98-0.55L222.98-0.55Q220.13-0.55 217.48-1.8 214.83-3.05 212.95-5.23 211.08-7.4 210.48-10.05L210.48-10.05Q210.08-11.6 210.08-13.1L210.08-13.1Q210.08-15.45 211.4-16.9 212.73-18.35 215.68-19.65L215.68-19.65Q218.38-20.8 220.68-20.8L220.68-20.8Q222.33-20.8 223.88-20.3L223.88-20.3Q228.68-18.8 228.68-16.2L228.68-16.2Q228.68-14.55 226.73-12.2L226.73-12.2Q225.78-11.1 224.48-10.25 223.18-9.4 221.95-8.72 220.73-8.05 220.28-7.8L220.28-7.8ZM222.38-17.05Q222.33-17.3 222-17.48 221.68-17.65 221.63-17.7L221.63-17.7Q220.28-17.8 218.88-16.93 217.48-16.05 216.55-14.7 215.63-13.35 215.63-12.1L215.63-12.1 215.68-11.7Q215.73-11.5 216.2-11.2 216.68-10.9 216.78-11L216.78-11Q220.33-13.65 222.13-15.25L222.13-15.25Q222.43-15.55 222.43-16.35L222.43-16.35Q222.43-16.85 222.38-17.05L222.38-17.05ZM237.87-7.8Q238.02-8.05 238.97-8.15L238.97-8.15Q240.52-8.3 242.07-7.98 243.62-7.65 243.47-6.85L243.47-6.85Q243.12-5 242.22-2.9L242.22-2.9Q242.02-2.4 241.72-1.45L241.72-1.45Q239.52 5.45 234.37 10.4L234.37 10.4Q234.22 10.1 233.32 9.65 232.42 9.2 232.47 9.1L232.47 9.1Q233.37 7.3 234.12 3.7L234.12 3.7 235.77-1.7Q235.87-2 236.02-2.98 236.17-3.95 236.62-5.23 237.07-6.5 237.87-7.8L237.87-7.8ZM288.57-26.8Q288.87-24.65 289.17-20.55L289.17-20.55 289.27-17.95Q289.27-10.7 291.17-5L291.17-5Q291.42-4.2 291.42-2.95L291.42-2.95Q291.42-2.25 291.32-1.05L291.32-1.05Q291.27-0.25 290.72 0.23 290.17 0.7 289.32 0.7L289.32 0.7Q289.22 0.7 288.77 0.6L288.77 0.6Q287.52 0.3 286.87-0.53 286.22-1.35 286.22-2.55L286.22-2.55Q286.22-2.95 286.27-3.15L286.27-3.15Q286.27-3.45 286.27-4L286.27-4Q286.27-4.9 286.17-5.65L286.17-5.65Q285.77-7.6 284.92-10.85L284.92-10.85Q284.62-12.2 283.67-12.2L283.67-12.2Q283.32-12.2 282.87-12.05L282.87-12.05Q281.32-11.6 280.14-11.2 278.97-10.8 278.07-10.55L278.07-10.55 275.67-9.85Q273.62-9.25 271.87-8.9L271.87-8.9Q270.02-8.5 269.17-6.85L269.17-6.85Q268.37-5.35 266.87-2.8L266.87-2.8Q265.92-1.1 264.37-1.1L264.37-1.1Q263.62-1.1 262.89-1.48 262.17-1.85 261.67-2.45L261.67-2.45Q260.92-3.3 260.92-4.1L260.92-4.1Q260.92-4.65 261.22-5.25L261.22-5.25 264.67-12.25Q270.37-23.85 271.47-26.15L271.47-26.15Q274.62-32.25 280.02-34.55L280.02-34.55Q281.17-35.1 282.37-35.1L282.37-35.1Q283.87-35.1 285.14-34.33 286.42-33.55 287.12-32.15L287.12-32.15Q288.12-30.1 288.57-26.8L288.57-26.8ZM272.42-14.15Q279.27-15.35 284.07-16.1L284.07-16.1Q283.97-20.9 283.79-23.68 283.62-26.45 283.07-29.25L283.07-29.25Q280.42-28.95 279.07-26.65L279.07-26.65Q276.72-22.95 274.57-19L274.57-19Q274.22-18.35 273.27-16.1L273.27-16.1 272.42-14.15ZM315.22-5.1Q313.72-3.4 312.17-2.43 310.62-1.45 308.72-1.45L308.72-1.45Q308.32-1.45 307.62-1.55L307.62-1.55 306.62-1.5Q300.32-1.45 297.42-7.5L297.42-7.5Q296.77-8.9 296.77-10.85L296.77-10.85Q296.77-12.55 297.27-14.1 297.77-15.65 298.67-16.65L298.67-16.65 299.62-17.8Q300.32-18.7 300.72-19.05L300.72-19.05Q302.47-20.75 305.37-20.75L305.37-20.75Q306.87-20.75 308.32-20.25 309.77-19.75 310.87-18.9L310.87-18.9Q311.07-18.75 311.27-18.28 311.47-17.8 311.47-17.5L311.47-17.5Q311.47-17.1 310.87-16.63 310.27-16.15 309.77-16.2L309.77-16.2Q306.37-16.6 304.32-14.58 302.27-12.55 302.27-9.05L302.27-9.05Q302.27-6.75 303.24-5.8 304.22-4.85 306.47-4.85L306.47-4.85Q307.87-4.85 309.12-5.43 310.37-6 312.02-7.05L312.02-7.05 312.97-7.65Q313.47-7.9 314.29-7.98 315.12-8.05 315.57-8.1L315.57-8.1Q315.52-7.65 315.54-7.23 315.57-6.8 315.57-6.55L315.57-6.55Q315.57-5.45 315.22-5.1L315.22-5.1ZM319.21-18.65Q318.86-19.05 318.74-19.5 318.61-19.95 318.51-20.75L318.51-20.75Q318.96-21.8 320.16-21.8L320.16-21.8Q320.76-21.7 321.01-21.7L321.01-21.7Q322.01-21.7 322.26-22.3 322.51-22.9 322.51-23.7 322.51-24.5 322.51-24.95L322.51-24.95 322.66-27.95Q322.71-28.95 322.79-30.43 322.86-31.9 322.96-33.85L322.96-33.85Q323.01-34.9 323.49-35.4 323.96-35.9 324.81-35.9L324.81-35.9Q325.41-35.9 325.76-35.8L325.76-35.8Q327.81-35.35 328.51-34.5 329.21-33.65 329.46-31.95L329.46-31.95Q329.51-31.6 329.36-30.5L329.36-30.5 328.46-22.7Q328.41-22.4 328.31-21.98 328.21-21.55 328.21-21.35L328.21-21.35Q328.21-20.9 328.71-20.75 329.21-20.6 330.56-20.65L330.56-20.65Q332.86-21.15 334.06-21.3L334.06-21.3Q334.31-21.35 334.86-21.35L334.86-21.35Q335.46-21.35 335.66-21.2L335.66-21.2Q335.86-21.1 335.99-20.63 336.11-20.15 336.11-19.55L336.11-19.55Q336.11-19 335.99-18.55 335.86-18.1 335.66-18.05L335.66-18.05Q334.31-17.65 332.46-17.4L332.46-17.4Q330.26-17 329.21-16.7L329.21-16.7Q328.66-16.55 328.11-15.95 327.56-15.35 327.51-14.85L327.51-14.85Q327.41-12.4 327.36-9.85L327.36-9.85Q327.31-7.9 327.51-5.95L327.51-5.95Q327.66-4.3 328.16-3.58 328.66-2.85 329.66-2.85L329.66-2.85Q330.46-2.85 331.96-3.4L331.96-3.4Q332.76-3.75 333.36-3.75L333.36-3.75Q334.31-3.75 334.71-2.7L334.71-2.7Q334.86-2.35 334.86-2L334.86-2Q334.86-1.35 334.39-0.95 333.91-0.55 333.11-0.25L333.11-0.25Q331.61 0.3 330.06 0.35L330.06 0.35Q327.96 0.35 326.11-0.68 324.26-1.7 323.19-3.55 322.11-5.4 322.26-7.8L322.26-7.8Q322.31-8.75 322.31-10.8L322.31-10.8Q322.31-14.05 322.06-17.4L322.06-17.4Q322.01-17.7 321.71-17.82 321.41-17.95 320.71-18.1L320.71-18.1Q319.56-18.3 319.21-18.65L319.21-18.65ZM346.11-0.8Q345.81 0.2 344.99 0.95 344.16 1.7 343.31 1.7L343.31 1.7Q342.16 1.65 341.09 0.6 340.01-0.45 340.01-1.7L340.01-1.7Q340.01-2.3 340.39-2.75 340.76-3.2 341.46-3.65L341.46-3.65Q341.91-3.95 341.91-3.95L341.91-3.95Q342.01-4.05 342.36-4.4 342.71-4.75 343.04-4.93 343.36-5.1 343.66-5.1L343.66-5.1Q344.11-5.1 344.61-4.75L344.61-4.75Q345.26-4.35 345.74-3.33 346.21-2.3 346.21-1.4L346.21-1.4Q346.21-1.2 346.11-0.8L346.11-0.8ZM357.31-0.8Q357.01 0.2 356.18 0.95 355.36 1.7 354.51 1.7L354.51 1.7Q353.36 1.65 352.28 0.6 351.21-0.45 351.21-1.7L351.21-1.7Q351.21-2.3 351.58-2.75 351.96-3.2 352.66-3.65L352.66-3.65Q353.11-3.95 353.11-3.95L353.11-3.95Q353.21-4.05 353.56-4.4 353.91-4.75 354.23-4.93 354.56-5.1 354.86-5.1L354.86-5.1Q355.31-5.1 355.81-4.75L355.81-4.75Q356.46-4.35 356.93-3.33 357.41-2.3 357.41-1.4L357.41-1.4Q357.41-1.2 357.31-0.8L357.31-0.8ZM368.51-0.8Q368.21 0.2 367.38 0.95 366.56 1.7 365.71 1.7L365.71 1.7Q364.56 1.65 363.48 0.6 362.41-0.45 362.41-1.7L362.41-1.7Q362.41-2.3 362.78-2.75 363.16-3.2 363.86-3.65L363.86-3.65Q364.31-3.95 364.31-3.95L364.31-3.95Q364.41-4.05 364.76-4.4 365.11-4.75 365.43-4.93 365.76-5.1 366.06-5.1L366.06-5.1Q366.51-5.1 367.01-4.75L367.01-4.75Q367.66-4.35 368.13-3.33 368.61-2.3 368.61-1.4L368.61-1.4Q368.61-1.2 368.51-0.8L368.51-0.8ZM389.4-13.65Q388.45-13.3 387.85-13.3L387.85-13.3Q386.75-13.3 385.78-14.05 384.8-14.8 384.15-16.1L384.15-16.1 385.55-17Q387.95-18.6 389.1-19.45L389.1-19.45Q392.95-22.45 395.8-25.05L395.8-25.05Q396.35-25.5 397.1-26.9L397.1-26.9 397.8-28.1 396.9-28.55Q396.75-28.6 396.23-28.83 395.7-29.05 395.35-29.1L395.35-29.1Q391-29.55 385.6-29.9L385.6-29.9Q383.9-30.05 383.4-28.05L383.4-28.05 379.2-8.6Q378.85-7.1 378.65-5.98 378.45-4.85 378.3-4.1L378.3-4.1 377.85-1.85Q377.65-1.05 377.2-0.58 376.75-0.1 375.9-0.05L375.9-0.05 375.25 0Q374.3 0 373.93-0.45 373.55-0.9 373.6-2.05L373.6-2.05 373.7-4.05Q374-9.95 374.45-12.9L374.45-12.9Q374.75-15.05 375.33-17.65 375.9-20.25 376.1-21.05L376.1-21.05Q376.8-23.95 377.1-25.45L377.1-25.45 374.5-25.9Q373.9-27.2 373.9-28.15L373.9-28.15Q373.9-29.75 375.4-31.4L375.4-31.4Q376.45-32.6 377.9-33.35 379.35-34.1 380.9-34.35L380.9-34.35Q383.15-34.6 384.9-34.6L384.9-34.6Q391.75-34.6 398.8-31.7L398.8-31.7Q399.65-31.35 400.5-30.63 401.35-29.9 401.6-29.7L401.6-29.7Q403.55-28.05 403.55-26.25L403.55-26.25Q403.55-25.05 402.8-23.6L402.8-23.6Q402.4-22.75 401.45-21.65L401.45-21.65Q396.8-16.55 389.4-13.65L389.4-13.65ZM409.95-21.2Q410.1-20.7 410-19.65L410-19.65 409.4-13.75Q409.65-13.95 410.15-15.18 410.65-16.4 411.1-17.18 411.55-17.95 411.8-18.2L411.8-18.2Q414.15-20.45 417.1-20.9 420.05-21.35 423.6-21.3L423.6-21.3Q423.95-21.3 424.38-21.03 424.8-20.75 424.8-20.58 424.8-20.4 424.5-20.03 424.2-19.65 423.95-19.55L423.95-19.55Q420.95-18.55 418.68-17.25 416.4-15.95 414.75-13.85L414.75-13.85Q410.85-8.9 410.25-3.65L410.25-3.65Q410.1-2.25 409.4-1.78 408.7-1.3 407.45-1.3L407.45-1.3Q406.05-1.3 404.95-2.5 403.85-3.7 403.85-5.15L403.85-5.15Q403.9-10.45 403.9-21.05L403.9-21.05Q403.9-22.5 404.55-23.08 405.2-23.65 406.9-23.65L406.9-23.65Q408.15-23.65 409.03-22.95 409.9-22.25 409.95-21.2L409.95-21.2ZM436.8-3.35Q435.25-2.4 433.25-2.4L433.25-2.4Q431.05-2.4 429.02-3.53 427-4.65 425.8-6.75 424.6-8.85 424.8-11.55L424.8-11.55 425.05-12.75Q425.35-14.55 425.55-15.4L425.55-15.4Q426-17.25 427.35-18 428.7-18.75 430.95-19.2L430.95-19.2Q432.4-19.5 433.8-19.5L433.8-19.5Q438.2-19.5 441.2-16.55L441.2-16.55Q442.8-14.95 442.8-12.65L442.8-12.65Q442.8-10.4 441.15-7.8L441.15-7.8Q439.25-4.85 436.8-3.35L436.8-3.35ZM432.6-16.95Q431.8-15 430.9-12.1L430.9-12.1 430.4-10.6 430.75-10.45Q430.75-10.1 430.77-9.38 430.8-8.65 430.95-8.15L430.95-8.15Q431.5-6.6 432.2-6.25L432.2-6.25Q432.5-6.1 433.07-6.4 433.65-6.7 434.1-7.1L434.1-7.1Q434.8-7.7 436.35-9.6L436.35-9.6Q437.5-10.9 437.5-12.7L437.5-12.7Q437.5-14.25 436.62-15.5 435.75-16.75 434.2-17.2L434.2-17.2Q434.05-17.25 433.65-17.25L433.65-17.25Q432.7-17.25 432.6-16.95L432.6-16.95ZM474.14-20.6Q476.49-24.05 479.59-28.85L479.59-28.85 481.29-31.5Q479.69-31.95 477.59-31.95L477.59-31.95Q475.79-31.95 473.84-31.65 471.89-31.35 471.54-31.3L471.54-31.3Q468.49-30.85 465.49-30.55L465.49-30.55 464.89-30.5Q463.39-30.5 462.09-31.18 460.79-31.85 459.39-33.1L459.39-33.1Q459.24-33.2 459.22-33.63 459.19-34.05 459.19-34.25L459.19-34.25 462.34-34.7Q467.69-35.4 470.77-35.73 473.84-36.05 477.09-36.05L477.09-36.05Q479.09-36.05 481.09-35.9L481.09-35.9Q483.29-35.7 485.07-35.13 486.84-34.55 488.34-33.35L488.34-33.35Q489.14-32.75 489.52-32.27 489.89-31.8 489.89-31.3L489.89-31.3Q489.89-30.5 488.74-29.35L488.74-29.35Q483.29-23.9 477.14-16.15L477.14-16.15Q475.99-14.75 474.72-12.93 473.44-11.1 472.29-9.35L472.29-9.35 470.59-6.9Q470.34-6.5 469.69-5.15L469.69-5.15 469.19-4.15 496.39-5.8Q496.44-5.6 496.44-5.2L496.44-5.2Q496.44-3.6 494.74-3.15L494.74-3.15Q489.84-2.05 487.34-1.7L487.34-1.7Q485.74-1.5 482.44-1.2L482.44-1.2Q479.29-0.9 477.54-0.65L477.54-0.65Q475.14-0.3 470.04 0.8L470.04 0.8 468.39 1.15Q466.79 1.45 466.04 1.45L466.04 1.45Q464.74 1.45 463.69 0.95L463.69 0.95Q461.54 0 461.54-1.65L461.54-1.65Q461.54-2.65 462.39-3.9L462.39-3.9Q470.29-15 474.14-20.6L474.14-20.6ZM508.59-7.8Q508.09-7.5 507.14-7.5L507.14-7.5Q506.79-7.5 506.29-7.55 505.79-7.6 505.44-7.55L505.44-7.55Q505.84-5.9 507.34-4.88 508.84-3.85 510.69-3.85L510.69-3.85Q512.29-3.85 513.54-4.55L513.54-4.55Q515.39-5.5 516.74-6.8L516.74-6.8Q517.69-7.75 518.54-7.75L518.54-7.75Q519.09-7.75 519.49-7.2L519.49-7.2Q519.89-6.55 519.89-5.6L519.89-5.6Q519.89-4.6 519.49-4.05L519.49-4.05Q518.19-2.05 516.12-1.3 514.04-0.55 511.29-0.55L511.29-0.55Q508.44-0.55 505.79-1.8 503.14-3.05 501.27-5.23 499.39-7.4 498.79-10.05L498.79-10.05Q498.39-11.6 498.39-13.1L498.39-13.1Q498.39-15.45 499.72-16.9 501.04-18.35 503.99-19.65L503.99-19.65Q506.69-20.8 508.99-20.8L508.99-20.8Q510.64-20.8 512.19-20.3L512.19-20.3Q516.99-18.8 516.99-16.2L516.99-16.2Q516.99-14.55 515.04-12.2L515.04-12.2Q514.09-11.1 512.79-10.25 511.49-9.4 510.27-8.72 509.04-8.05 508.59-7.8L508.59-7.8ZM510.69-17.05Q510.64-17.3 510.32-17.48 509.99-17.65 509.94-17.7L509.94-17.7Q508.59-17.8 507.19-16.93 505.79-16.05 504.87-14.7 503.94-13.35 503.94-12.1L503.94-12.1 503.99-11.7Q504.04-11.5 504.52-11.2 504.99-10.9 505.09-11L505.09-11Q508.64-13.65 510.44-15.25L510.44-15.25Q510.74-15.55 510.74-16.35L510.74-16.35Q510.74-16.85 510.69-17.05L510.69-17.05ZM529.39-21.2Q529.54-20.7 529.44-19.65L529.44-19.65 528.84-13.75Q529.09-13.95 529.59-15.18 530.09-16.4 530.54-17.18 530.99-17.95 531.24-18.2L531.24-18.2Q533.59-20.45 536.54-20.9 539.49-21.35 543.04-21.3L543.04-21.3Q543.39-21.3 543.81-21.03 544.24-20.75 544.24-20.58 544.24-20.4 543.94-20.03 543.64-19.65 543.39-19.55L543.39-19.55Q540.39-18.55 538.11-17.25 535.84-15.95 534.19-13.85L534.19-13.85Q530.29-8.9 529.69-3.65L529.69-3.65Q529.54-2.25 528.84-1.78 528.14-1.3 526.89-1.3L526.89-1.3Q525.49-1.3 524.39-2.5 523.29-3.7 523.29-5.15L523.29-5.15Q523.34-10.45 523.34-21.05L523.34-21.05Q523.34-22.5 523.99-23.08 524.64-23.65 526.34-23.65L526.34-23.65Q527.59-23.65 528.46-22.95 529.34-22.25 529.39-21.2L529.39-21.2ZM556.24-3.35Q554.68-2.4 552.68-2.4L552.68-2.4Q550.49-2.4 548.46-3.53 546.43-4.65 545.24-6.75 544.03-8.85 544.24-11.55L544.24-11.55 544.49-12.75Q544.78-14.55 544.99-15.4L544.99-15.4Q545.43-17.25 546.78-18 548.13-18.75 550.38-19.2L550.38-19.2Q551.83-19.5 553.24-19.5L553.24-19.5Q557.63-19.5 560.63-16.55L560.63-16.55Q562.24-14.95 562.24-12.65L562.24-12.65Q562.24-10.4 560.58-7.8L560.58-7.8Q558.68-4.85 556.24-3.35L556.24-3.35ZM552.03-16.95Q551.24-15 550.33-12.1L550.33-12.1 549.83-10.6 550.18-10.45Q550.18-10.1 550.21-9.38 550.24-8.65 550.38-8.15L550.38-8.15Q550.93-6.6 551.63-6.25L551.63-6.25Q551.93-6.1 552.51-6.4 553.08-6.7 553.53-7.1L553.53-7.1Q554.24-7.7 555.78-9.6L555.78-9.6Q556.93-10.9 556.93-12.7L556.93-12.7Q556.93-14.25 556.06-15.5 555.18-16.75 553.63-17.2L553.63-17.2Q553.49-17.25 553.08-17.25L553.08-17.25Q552.13-17.25 552.03-16.95L552.03-16.95Z" opacity="1" transform="matrix(1,0,0,1,0,0)" fill="#ffffff" class="slogan-text-1" data-fill-palette-color="secondary" id="text-1"></path></svg></g></svg></g></svg></g></svg></g><g><svg viewBox="0 0 366.64704 366.64704" height="366.64704" width="366.64704"><g><svg viewBox="0 0 366.64704 366.64704" height="366.64704" width="366.64704"><g transform="matrix(1,0,0,1,121.47692121185787,96.90398390467489)"><svg viewBox="0 0 123.69319757628428 172.83907219065023" height="172.83907219065023" width="123.69319757628428"><g><svg xmlns="http://www.w3.org/2000/svg" xmlns:xlink="http://www.w3.org/1999/xlink" version="1.1" x="0" y="0" viewBox="23.5 12.971 52.999999999999986 74.05799999999999" enable-background="new 0 0 100 100" xml:space="preserve" height="172.83907219065023" width="123.69319757628428" class="icon-z$-0" data-fill-palette-color="accent" id="z$-0"><g fill="#ffffff" data-fill-palette-color="accent"><path d="M45 15.971c8.492 0 16.353 4.615 20.512 12.043 1.955 3.495 2.988 7.457 2.988 11.457v21.059c0 2.293-0.594 4.565-1.715 6.572-2.393 4.273-6.908 6.928-11.785 6.928s-9.393-2.655-11.785-6.928c-1.121-2.003-1.715-4.276-1.715-6.572V40.563c0-0.608 0.174-1.22 0.503-1.769 0.67-1.116 1.733-1.731 2.997-1.731 1.263 0 2.327 0.614 2.996 1.729 0.33 0.55 0.504 1.162 0.504 1.771v20c0 1.152 0.322 2.297 0.93 3.313 1.214 2.025 3.244 3.187 5.57 3.187 2.324 0 4.354-1.162 5.57-3.188 0.607-1.016 0.93-2.161 0.93-3.312v-20c0-0.016-0.004-0.031-0.005-0.046 0.001-0.016 0.005-0.03 0.005-0.046 0-9.677-7.402-17.55-16.5-17.55s-16.5 7.873-16.5 17.55c0 0.01 0.003 0.019 0.003 0.029S28.5 40.519 28.5 40.529v20c0 4.512 1.166 8.98 3.371 12.922C36.561 81.827 45.422 87.029 55 87.029c0.828 0 1.5-0.671 1.5-1.5s-0.672-1.5-1.5-1.5c-8.492 0-16.353-4.615-20.512-12.043C32.533 68.492 31.5 64.53 31.5 60.529v-20c0-0.01-0.003-0.019-0.003-0.029s0.003-0.019 0.003-0.029c0-8.023 6.057-14.55 13.5-14.55s13.5 6.527 13.5 14.55c0 0.016 0.004 0.031 0.005 0.046-0.001 0.016-0.005 0.03-0.005 0.046v20c0 0.608-0.174 1.22-0.503 1.769-0.67 1.116-1.733 1.731-2.997 1.731s-2.328-0.614-2.996-1.729c-0.33-0.55-0.504-1.162-0.504-1.771v-20c0-1.152-0.322-2.297-0.931-3.314-1.216-2.025-3.245-3.186-5.569-3.186s-4.354 1.162-5.57 3.188c-0.588 0.983-0.902 2.088-0.922 3.202-0.002 0.026-0.008 0.05-0.008 0.076v0.034 19.966 0.034c0 0.005 0.002 0.011 0.002 0.016 0.008 2.791 0.731 5.552 2.096 7.987 2.921 5.22 8.439 8.463 14.402 8.463s11.481-3.243 14.402-8.463c1.373-2.453 2.098-5.232 2.098-8.037V39.471c0-4.512-1.166-8.98-3.371-12.922C63.439 18.173 54.578 12.971 45 12.971c-0.828 0-1.5 0.671-1.5 1.5S44.172 15.971 45 15.971z" fill="#ffffff" data-fill-palette-color="accent"></path><path d="M25 40.971c0.828 0 1.5-0.671 1.5-1.5 0-3.148 0.813-6.265 2.352-9.014 3.274-5.852 9.462-9.486 16.148-9.486 6.685 0 12.872 3.635 16.148 9.485 1.538 2.75 2.352 5.867 2.352 9.015v21.059c0 1.441-0.373 2.869-1.078 4.13-1.509 2.695-4.353 4.37-7.422 4.37-3.068 0-5.912-1.674-7.422-4.369-0.705-1.262-1.078-2.691-1.078-4.131v-20c0-0.829-0.672-1.5-1.5-1.5s-1.5 0.671-1.5 1.5v20c0 1.952 0.505 3.887 1.461 5.596C47 69.767 50.846 72.029 55 72.029s8.001-2.263 10.039-5.905c0.956-1.708 1.461-3.642 1.461-5.595V39.471c0-3.66-0.945-7.283-2.734-10.48C59.96 22.193 52.77 17.971 45 17.971c-7.771 0-14.963 4.223-18.766 11.021-1.789 3.195-2.734 6.819-2.734 10.479C23.5 40.299 24.172 40.971 25 40.971z" fill="#ffffff" data-fill-palette-color="accent"></path><path d="M55 79.029c-6.687 0-12.874-3.635-16.148-9.485-1.538-2.75-2.352-5.867-2.352-9.015v-1-19-1c0-1.441 0.373-2.869 1.078-4.13 1.509-2.695 4.353-4.37 7.422-4.37 3.068 0 5.912 1.674 7.422 4.369 0.705 1.262 1.078 2.691 1.078 4.131v20c0 0.829 0.672 1.5 1.5 1.5s1.5-0.671 1.5-1.5v-20c0-1.952-0.505-3.887-1.461-5.596C53 30.292 49.154 28.029 45 28.029s-8.001 2.263-10.039 5.905c-0.956 1.708-1.461 3.642-1.461 5.595v1 19 1c0 3.66 0.945 7.283 2.734 10.479C40.038 77.807 47.229 82.029 55 82.029c7.77 0 14.96-4.223 18.766-11.021 1.789-3.195 2.734-6.819 2.734-10.479 0-0.829-0.672-1.5-1.5-1.5s-1.5 0.671-1.5 1.5c0 3.148-0.813 6.265-2.352 9.013C67.872 75.394 61.685 79.029 55 79.029z" fill="#ffffff" data-fill-palette-color="accent"></path></g></svg></g></svg></g><g><path d="M80.003 136.112v0c-1.71 3.831-4.017 7.139-6.92 9.924-2.903 2.785-6.241 4.592-10.014 5.42-3.772 0.828-7.785 0.293-12.037-1.605v0c-3.693-1.649-6.243-3.659-7.651-6.031-1.405-2.378-2.058-4.819-1.958-7.325 0.1-2.505 0.578-4.717 1.435-6.636v0c1.2 2.837 2.818 5.306 4.852 7.407 2.041 2.103 4.304 3.71 6.789 4.819v0c2.623 1.171 5.331 1.679 8.125 1.522 2.79-0.165 5.415-1.144 7.874-2.935 2.46-1.791 4.514-4.533 6.163-8.226v0c1.424-3.189 2.232-6.571 2.424-10.144 0.192-3.573-0.428-6.849-1.86-9.827-1.438-2.981-3.859-5.231-7.261-6.75v0c-3.051-1.362-6.022-1.753-8.915-1.174-2.898 0.577-5.743 1.71-8.534 3.399-2.797 1.686-5.594 3.565-8.389 5.636-2.796 2.071-5.608 3.943-8.437 5.615-2.835 1.669-5.736 2.777-8.704 3.322-2.961 0.549-6.04 0.11-9.235-1.316v0c-2.975-1.328-5.778-3.432-8.409-6.312-2.633-2.873-4.808-6.289-6.526-10.247-1.718-3.959-2.652-8.204-2.801-12.738-0.143-4.53 0.815-9.101 2.874-13.711v0c1.868-4.183 4.175-6.639 6.922-7.367 2.747-0.728 5.646-0.41 8.696 0.952v0c2.554 1.14 5.106 2.808 7.657 5.003 2.548 2.201 4.867 4.535 6.958 7 2.091 2.465 3.804 4.678 5.139 6.64v0c-0.853 1.151-1.807 1.808-2.861 1.971-1.057 0.17-2.151 0.002-3.283-0.504v0c-1.491-0.666-3.049-1.746-4.675-3.242-1.635-1.492-3.298-3.106-4.99-4.842-1.695-1.73-3.374-3.351-5.038-4.864-1.666-1.506-3.28-2.607-4.839-3.304v0c-1.415-0.632-2.722-0.706-3.919-0.221-1.197 0.484-2.302 1.862-3.316 4.132v0c-1.489 3.334-2.086 6.768-1.793 10.302 0.293 3.534 1.189 6.91 2.687 10.128 1.498 3.219 3.333 6.019 5.506 8.4 2.17 2.372 4.356 4.05 6.558 5.033v0c2.623 1.171 5.216 1.412 7.78 0.724 2.561-0.683 5.141-1.892 7.742-3.628 2.604-1.727 5.277-3.615 8.018-5.666 2.741-2.05 5.576-3.871 8.504-5.46 2.919-1.586 5.976-2.579 9.172-2.978 3.199-0.405 6.607 0.2 10.224 1.814v0c3.693 1.649 6.573 3.916 8.643 6.801 2.072 2.879 3.458 6.112 4.157 9.699 0.693 3.584 0.808 7.23 0.344 10.939-0.461 3.702-1.42 7.186-2.878 10.451z" fill="#ffffff" data-fill-palette-color="accent"></path><path d="M103.816 124.164v0c-0.516 0.355-1.2 0.425-2.052 0.209-0.857-0.213-1.623-0.535-2.296-0.967-0.673-0.431-1.053-0.71-1.138-0.834v0c-1.263-3.755-2.311-7.161-3.144-10.218-0.833-3.057-1.707-6.18-2.624-9.371-0.919-3.181-2.165-6.802-3.739-10.863-1.564-4.059-3.683-8.99-6.356-14.794-2.67-5.798-6.198-12.845-10.586-21.14v0c-0.332-0.616-0.491-1.121-0.479-1.515 0.011-0.384 0.403-0.842 1.175-1.373v0c1.663-1.144 3.166-1.494 4.511-1.047 1.34 0.441 2.385 1.206 3.135 2.295v0c0.617 0.897 1.526 2.63 2.726 5.199 1.206 2.566 2.535 5.657 3.987 9.274v0c-0.369-2.857-0.484-5.935-0.346-9.233 0.129-3.3 0.743-6.412 1.842-9.334 1.105-2.927 2.903-5.247 5.395-6.962v0c2.815-1.937 5.829-2.528 9.042-1.771 3.208 0.761 5.935 2.773 8.182 6.035v0c1.719 2.497 2.976 5.52 3.772 9.071 0.794 3.56 1.032 7.264 0.712 11.114-0.319 3.849-1.326 7.49-3.02 10.923-1.698 3.427-4.209 6.284-7.535 8.573v0c-1.663 1.144-3.136 1.878-4.419 2.201-1.293 0.321-2.072 0.289-2.337-0.098v0c-0.176-0.255-0.034-0.566 0.425-0.932 0.457-0.356 1.006-0.755 1.647-1.196v0c2.559-1.762 4.578-4.071 6.057-6.929 1.473-2.854 2.432-5.944 2.878-9.27 0.446-3.326 0.339-6.598-0.32-9.815-0.663-3.223-1.831-6.05-3.502-8.479v0c-1.41-2.049-3.042-3.497-4.897-4.344-1.855-0.848-3.741-0.611-5.659 0.709v0c-1.668 1.148-2.954 2.811-3.856 4.987-0.908 2.18-1.517 4.582-1.828 7.204-0.32 2.621-0.432 5.198-0.336 7.733 0.087 2.533 0.329 4.7 0.724 6.502v0c2.149 5.588 4.178 11.003 6.089 16.245 1.91 5.242 3.582 10.034 5.014 14.375 1.433 4.341 2.51 7.961 3.234 10.859 0.718 2.902 0.966 4.805 0.743 5.71v0c-0.099 0.537-0.373 0.959-0.821 1.267z" fill="#ffffff" data-fill-palette-color="accent"></path><path d="M141.395 67.694v0c-2.381 0.335-4.511-0.168-6.39-1.511-1.873-1.343-3.037-3.632-3.493-6.866v0c-0.39-2.77-0.196-5.837 0.583-9.202 0.785-3.366 2.033-6.756 3.744-10.17 1.717-3.421 3.758-6.613 6.124-9.576 2.373-2.957 4.969-5.42 7.788-7.389 2.82-1.962 5.73-3.155 8.732-3.578v0c3.002-0.423 5.613 0.013 7.833 1.308 2.221 1.294 3.515 3.248 3.883 5.86v0c0.271 1.924-0.063 3.307-1.002 4.149-0.94 0.835-2.256 1.372-3.948 1.61v0c0.064-0.635 0.102-1.326 0.115-2.072 0.013-0.746-0.024-1.43-0.111-2.051v0c-0.249-1.767-0.885-3.225-1.91-4.375-1.025-1.15-2.574-1.579-4.647-1.286v0c-2.156 0.304-4.243 1.363-6.263 3.177-2.019 1.815-3.894 4.117-5.623 6.907-1.721 2.796-3.185 5.767-4.39 8.915-1.205 3.154-2.067 6.219-2.588 9.193-0.52 2.974-0.624 5.577-0.309 7.807v0c0.423 3.002 1.671 4.356 3.744 4.065v0c1.774-0.25 3.581-1.349 5.421-3.299 1.841-1.943 3.679-4.358 5.513-7.247 1.827-2.887 3.544-5.856 5.153-8.907 1.61-3.044 3.023-5.831 4.239-8.361v0c0.243-0.5 0.401-0.756 0.476-0.766v0c0.474 0.01 1.093 0.079 1.856 0.208 0.763 0.129 1.44 0.347 2.033 0.653 0.593 0.306 0.933 0.77 1.02 1.391v0c0.097 0.689-0.115 1.679-0.636 2.969-0.528 1.292-1.106 2.765-1.736 4.419-0.629 1.661-1.177 3.328-1.644 5.001-0.474 1.674-0.613 3.203-0.418 4.588v0c0.162 1.153 0.629 2.242 1.399 3.267 0.778 1.031 1.856 1.45 3.235 1.256v0c2.081-0.293 4.599-2.196 7.555-5.707 2.955-3.519 5.738-8.562 8.347-15.128v0l1.309 0.995c-1.025 4.381-2.588 8.327-4.689 11.836-2.093 3.516-4.455 6.36-7.084 8.532-2.637 2.173-5.34 3.455-8.11 3.845v0c-2.845 0.401-5.062-0.15-6.65-1.651-1.582-1.503-2.514-3.253-2.796-5.252v0c-0.065-0.464-0.101-0.988-0.106-1.572 0-0.591-0.005-1.199-0.017-1.824v0c-2.68 4.927-5.228 8.699-7.643 11.314-2.421 2.616-5.055 4.124-7.899 4.525z" fill="#ffffff" data-fill-palette-color="accent"></path><path d="M211.654 64.345v0c-2.528-0.779-4.311-2.06-5.347-3.842-1.03-1.781-1.213-3.748-0.551-5.901v0c0.686-2.225 1.923-4.403 3.711-6.534 1.795-2.129 3.565-4.247 5.31-6.355 1.75-2.099 2.922-4.113 3.516-6.042v0c0.732-2.377 0.588-4.353-0.433-5.929-1.021-1.576-2.088-3.062-3.201-4.458v0c-3.054 3.853-6.116 7.462-9.185 10.827-3.068 3.358-5.503 5.859-7.307 7.502v0l-0.423-2.206c1.635-1.609 3.86-4.012 6.676-7.21 2.816-3.198 5.772-6.919 8.867-11.163v0c-0.515-0.973-0.612-1.98-0.291-3.02v0c0.686-2.225 1.878-3.848 3.576-4.867 1.694-1.028 2.837-1.451 3.429-1.268v0c0.816 0.252 1.171 0.75 1.064 1.495-0.105 0.739-0.214 1.293-0.328 1.662v0c-0.114 0.369-0.541 1.03-1.282 1.984-0.739 0.947-1.143 1.533-1.212 1.757v0c-0.321 1.04-0.037 2.166 0.852 3.376 0.89 1.204 1.91 2.574 3.059 4.111 1.157 1.532 2.077 3.239 2.758 5.121 0.677 1.874 0.65 3.996-0.08 6.366v0c-0.688 2.232-1.85 4.354-3.485 6.365-1.638 2.018-3.241 3.921-4.809 5.709-1.563 1.796-2.584 3.475-3.065 5.036v0c-0.412 1.337-0.354 2.331 0.173 2.983 0.529 0.646 1.241 1.107 2.137 1.383v0c1.778 0.548 3.786 0.557 6.024 0.029 2.232-0.53 4.503-1.373 6.813-2.529 2.312-1.162 4.463-2.471 6.454-3.926 1.993-1.462 3.577-2.906 4.752-4.332v0l1.098 1.56c-2.37 2.687-5.243 5.154-8.617 7.401-3.376 2.254-6.866 3.882-10.469 4.885-3.603 1.002-6.998 1.012-10.184 0.03z" fill="#ffffff" data-fill-palette-color="accent"></path><path d="M245.233 83.442v0c-2.754-2.397-4.415-4.896-4.981-7.499-0.566-2.602-0.421-5.078 0.436-7.428 0.853-2.345 2.044-4.395 3.572-6.152v0c1.528-1.757 2.938-2.9 4.23-3.429 1.282-0.528 2.464-0.733 3.547-0.612 1.082 0.11 2.034 0.318 2.856 0.622 0.817 0.3 1.444 0.434 1.881 0.404v0c3.439-0.405 6.809-1.025 10.11-1.859 3.302-0.835 6.528-1.94 9.68-3.317v0l0.916-1.052c1.886-2.167 3.591-3.387 5.115-3.659 1.524-0.272 2.697-0.051 3.518 0.664v0c0.468 0.407 0.717 0.829 0.747 1.267 0.036 0.442-0.076 0.811-0.333 1.107v0c-0.253 0.291-0.749 0.682-1.486 1.172-0.737 0.491-1.54 1.235-2.409 2.233v0c-1.682 1.933-3.125 4.358-4.329 7.274-1.199 2.92-2.499 5.958-3.901 9.112-1.412 3.155-3.289 6.078-5.632 8.77v0c-0.665 0.764-1.36 1.474-2.086 2.13-0.726 0.656-1.455 1.231-2.187 1.727v0c2.355 1.428 5.091 2.188 8.208 2.279 3.116 0.081 6.951-0.778 11.504-2.579v0l0.035 1.565c-3.926 2.255-7.726 3.249-11.402 2.982-3.676-0.267-7.013-1.344-10.01-3.231v0c-3.129 1.707-6.215 2.268-9.259 1.683-3.039-0.59-5.819-1.981-8.34-4.174zM248.084 80.512v0c0.707 0.615 1.848 1.197 3.425 1.747 1.582 0.554 3.536 0.145 5.862-1.228v0c-2.056-2.611-3.398-5.477-4.025-8.598-0.632-3.125-0.778-5.828-0.438-8.107v0c-1.339-1.064-2.876-0.599-4.613 1.397v0c-1.836 2.11-2.903 4.606-3.201 7.489-0.288 2.881 0.708 5.315 2.99 7.3zM259.029 80.008v0c0.631-0.483 1.255-1.022 1.872-1.617 0.618-0.595 1.309-1.331 2.074-2.21v0c2.397-2.754 4.447-5.788 6.15-9.099 1.694-3.311 3.352-6.371 4.974-9.179v0c-3.287 1.049-6.555 1.935-9.807 2.659-3.256 0.719-6.145 1.169-8.666 1.349v0c-0.75 2.635-0.917 5.577-0.501 8.824 0.421 3.252 1.722 6.343 3.904 9.273z" fill="#ffffff" data-fill-palette-color="accent"></path><path d="M274.001 109.411v0c-0.575-1.358 0.114-2.913 2.065-4.667 1.957-1.756 4.367-3.239 7.228-4.45v0c3.432-1.453 7.753-2.608 12.963-3.467 5.204-0.856 10.811-1.456 16.821-1.8 6.008-0.351 12.006-0.424 17.995-0.221 5.991 0.21 11.541 0.667 16.648 1.371 5.108 0.703 9.332 1.616 12.672 2.738 3.344 1.113 5.349 2.457 6.015 4.031v0c0.545 1.288 0.16 2.525-1.157 3.709-1.307 1.189-2.678 2.087-4.111 2.694v0c-1.998 0.846-4.618 1.427-7.858 1.743-3.24 0.316-6.823 0.378-10.75 0.185-3.921-0.196-7.893-0.665-11.918-1.408-4.025-0.743-7.855-1.777-11.491-3.104-3.645-1.33-6.748-2.927-9.31-4.79v0c-2.44 0.015-5.075 0.266-7.906 0.754-2.827 0.478-5.535 1.097-8.124 1.855-2.589 0.759-4.851 1.548-6.786 2.367v0c-0.787 0.333-1.459 0.636-2.016 0.91-0.555 0.28-1.068 0.561-1.54 0.842v0c3.355-0.238 6.659-0.35 9.913-0.335 3.253 0.015 6.331 0.208 9.233 0.581 2.899 0.381 5.549 0.969 7.95 1.763 2.407 0.792 4.457 1.843 6.149 3.155 1.692 1.311 2.946 2.931 3.762 4.859v0c0.848 2.005 1.04 3.801 0.576 5.39-0.465 1.588-1.321 2.96-2.567 4.116-1.237 1.159-2.643 2.072-4.216 2.738v0c-2.214 0.937-4.517 1.47-6.909 1.6-2.394 0.123-4.725 0.201-6.993 0.232-2.262 0.03-4.287 0.423-6.076 1.18v0c-1.427 0.604-2.336 1.348-2.725 2.231-0.383 0.88-0.379 1.784 0.013 2.71v0c0.698 1.65 2.265 3.16 4.7 4.53 2.435 1.371 5.381 2.507 8.837 3.408 3.462 0.899 7.034 1.411 10.715 1.536v0l-0.702 1.947c-4.138-0.022-8.076-0.506-11.813-1.453-3.731-0.95-6.963-2.365-9.696-4.245-2.74-1.878-4.7-4.212-5.882-7.004v0c-1.028-2.43-1.164-4.545-0.408-6.347 0.759-1.795 2.106-3.102 4.041-3.92v0c1.504-0.636 3.306-1.062 5.406-1.278 2.101-0.216 4.229-0.462 6.387-0.739 2.163-0.28 4.101-0.782 5.814-1.507v0c1.859-0.787 3.015-1.74 3.469-2.86 0.457-1.129 0.444-2.264-0.039-3.406v0c-0.757-1.789-2.155-3.094-4.193-3.914-2.034-0.83-4.43-1.357-7.188-1.581-2.752-0.227-5.596-0.328-8.533-0.305-2.946 0.02-5.742 0.044-8.386 0.07-2.647 0.021-4.885-0.132-6.714-0.457-1.819-0.322-2.941-0.984-3.365-1.987zM314.589 101.592v0c2.422 1.339 5.249 2.443 8.481 3.311 3.239 0.866 6.583 1.538 10.032 2.016 3.449 0.478 6.769 0.801 9.959 0.969 3.191 0.168 6.013 0.156 8.468-0.037 2.448-0.191 4.208-0.513 5.28-0.967v0c0.355-0.15 0.571-0.286 0.646-0.408 0.078-0.115 0.088-0.243 0.029-0.382v0c-0.212-0.501-1.628-1.106-4.247-1.816-2.617-0.703-5.995-1.36-10.137-1.972-4.135-0.614-8.685-1.007-13.65-1.18-4.965-0.173-9.919-0.017-14.861 0.466z" fill="#ffffff" data-fill-palette-color="accent"></path><path d="M21.412 251.91v0c-1.45-3.448-2.197-6.968-2.242-10.559-0.045-3.591 0.816-6.867 2.583-9.829 1.763-2.953 4.559-5.235 8.388-6.845v0c3.328-1.399 6.191-1.833 8.588-1.302 2.404 0.529 4.394 1.59 5.969 3.185 1.568 1.598 2.714 3.257 3.438 4.978v0c-2.572-0.944-5.163-1.394-7.775-1.349-2.612 0.044-5.039 0.538-7.281 1.48v0c-2.362 0.993-4.345 2.447-5.946 4.361-1.602 1.914-2.568 4.219-2.9 6.914-0.332 2.695 0.201 5.704 1.597 9.025v0c1.21 2.877 2.918 5.465 5.126 7.765 2.21 2.307 4.724 3.903 7.54 4.789 2.814 0.88 5.754 0.675 8.822-0.615v0c2.743-1.153 4.811-2.848 6.202-5.085 1.391-2.237 2.391-4.783 2.998-7.639 0.604-2.847 1.084-5.811 1.442-8.89 0.363-3.082 0.863-6.054 1.498-8.914 0.636-2.861 1.68-5.426 3.132-7.695 1.455-2.263 3.621-4 6.498-5.209v0c2.68-1.127 5.758-1.67 9.235-1.63 3.477 0.04 7.028 0.711 10.654 2.011 3.629 1.292 6.962 3.272 9.998 5.942 3.042 2.667 5.436 6.077 7.182 10.231v0c1.586 3.772 1.776 6.775 0.57 9.008-1.206 2.233-3.181 3.927-5.924 5.08v0c-2.299 0.967-4.943 1.611-7.931 1.933-2.985 0.313-5.916 0.398-8.793 0.256-2.884-0.14-5.369-0.373-7.457-0.699v0c-0.229-1.256-0.077-2.281 0.457-3.073 0.53-0.783 1.306-1.39 2.329-1.82v0c1.346-0.566 3-0.925 4.961-1.077 1.97-0.148 4.036-0.247 6.198-0.296 2.158-0.04 4.238-0.141 6.24-0.303 1.999-0.168 3.701-0.547 5.104-1.137v0c1.276-0.537 2.123-1.341 2.539-2.413 0.407-1.075 0.181-2.636-0.678-4.681v0c-1.263-3.004-3.133-5.487-5.61-7.45-2.48-1.969-5.223-3.446-8.23-4.431-3.01-0.991-5.953-1.503-8.829-1.535-2.869-0.034-5.294 0.365-7.276 1.198v0c-2.362 0.993-4.1 2.531-5.212 4.613-1.119 2.085-1.908 4.501-2.366 7.25-0.465 2.751-0.865 5.647-1.202 8.688-0.338 3.034-0.883 5.987-1.633 8.859-0.744 2.869-1.962 5.466-3.653 7.791-1.688 2.331-4.164 4.183-7.428 5.555v0c-3.321 1.396-6.552 1.888-9.693 1.475-3.138-0.407-6.087-1.476-8.848-3.208-2.763-1.738-5.206-3.887-7.329-6.447-2.132-2.564-3.816-5.316-5.052-8.256z" fill="#ffffff" data-fill-palette-color="accent"></path><path d="M43.936 326.977v0c-0.447-0.323-0.709-0.877-0.787-1.665-0.076-0.777-0.032-1.515 0.132-2.212 0.154-0.696 0.274-1.103 0.358-1.22v0c2.776-2.185 5.324-4.084 7.644-5.696 2.32-1.613 4.683-3.285 7.089-5.015 2.395-1.729 5.064-3.859 8.006-6.392 2.942-2.532 6.45-5.79 10.524-9.773 4.074-3.983 8.937-9.063 14.587-15.24v0c0.428-0.464 0.807-0.747 1.136-0.849 0.329-0.102 0.831 0.09 1.507 0.578v0c1.458 1.053 2.202 2.211 2.233 3.474 0.026 1.259-0.307 2.366-0.996 3.321v0c-0.565 0.782-1.747 2.066-3.546 3.851-1.795 1.78-3.997 3.823-6.605 6.129v0c2.294-1.165 4.848-2.184 7.663-3.058 2.809-0.878 5.609-1.295 8.399-1.251 2.786 0.049 5.274 0.864 7.463 2.444v0c2.474 1.787 3.874 4.144 4.198 7.072 0.319 2.924-0.556 5.819-2.625 8.684v0c-1.581 2.189-3.746 4.152-6.496 5.889-2.745 1.731-5.784 3.038-9.115 3.921-3.33 0.893-6.69 1.139-10.08 0.738-3.394-0.395-6.552-1.647-9.474-3.756v0c-1.458-1.053-2.513-2.074-3.166-3.064-0.657-0.984-0.863-1.647-0.617-1.988v0c0.161-0.223 0.462-0.198 0.901 0.077 0.445 0.279 0.946 0.62 1.504 1.023v0c2.251 1.625 4.796 2.631 7.637 3.016 2.84 0.385 5.725 0.268 8.655-0.353 2.93-0.621 5.648-1.691 8.156-3.211 2.512-1.525 4.539-3.355 6.079-5.488v0c1.299-1.798 2.024-3.603 2.176-5.414 0.152-1.811-0.616-3.325-2.302-4.543v0c-1.458-1.053-3.239-1.634-5.344-1.743-2.099-0.105-4.299 0.099-6.599 0.613-2.299 0.524-4.496 1.202-6.593 2.033-2.1 0.837-3.85 1.69-5.249 2.557v0c-4.056 3.487-7.999 6.817-11.829 9.992-3.83 3.174-7.354 6.013-10.572 8.515-3.222 2.508-5.943 4.499-8.163 5.973-2.214 1.477-3.736 2.256-4.567 2.335v0c-0.485 0.083-0.926-0.018-1.322-0.304z" fill="#ffffff" data-fill-palette-color="accent"></path><path d="M134.003 350.909v0c-2.124-0.33-3.812-1.31-5.065-2.941-1.259-1.638-1.665-3.894-1.219-6.766v0c0.382-2.464 1.342-5.034 2.88-7.71 1.537-2.669 3.48-5.243 5.831-7.723 2.35-2.473 4.918-4.668 7.704-6.585 2.786-1.917 5.637-3.35 8.552-4.299 2.922-0.948 5.717-1.215 8.385-0.8v0c2.669 0.414 4.786 1.461 6.352 3.14 1.559 1.678 2.158 3.681 1.797 6.009v0c-0.266 1.716-0.906 2.808-1.92 3.279-1.022 0.476-2.289 0.596-3.8 0.361v0c0.229-0.529 0.444-1.109 0.646-1.74 0.204-0.638 0.348-1.229 0.432-1.773v0c0.245-1.579 0.077-2.993-0.503-4.24-0.58-1.247-1.793-2.014-3.637-2.301v0c-1.92-0.298-3.977 0.066-6.172 1.092-2.189 1.034-4.382 2.517-6.578 4.449-2.197 1.939-4.216 4.1-6.057 6.485-1.84 2.378-3.368 4.769-4.585 7.173-1.21 2.406-1.969 4.602-2.278 6.59v0c-0.414 2.669 0.301 4.146 2.146 4.432v0c1.579 0.245 3.406-0.224 5.479-1.408 2.08-1.183 4.271-2.771 6.574-4.763 2.31-1.991 4.548-4.08 6.714-6.268 2.159-2.189 4.083-4.205 5.77-6.048v0c0.344-0.372 0.549-0.553 0.617-0.542v0c0.398 0.131 0.907 0.353 1.528 0.666 0.615 0.305 1.138 0.665 1.569 1.08 0.424 0.414 0.593 0.897 0.507 1.448v0c-0.095 0.613-0.535 1.402-1.319 2.368-0.777 0.967-1.65 2.076-2.618 3.327-0.962 1.259-1.862 2.542-2.699 3.848-0.83 1.307-1.341 2.577-1.533 3.809v0c-0.16 1.028-0.044 2.081 0.347 3.16 0.397 1.079 1.212 1.715 2.444 1.906v0c1.845 0.286 4.485-0.691 7.921-2.933 3.428-2.236 7.104-5.82 11.028-10.754v0l0.872 1.191c-2.017 3.473-4.37 6.44-7.06 8.902-2.695 2.454-5.452 4.268-8.269 5.441-2.812 1.181-5.45 1.58-7.914 1.198v0c-2.532-0.393-4.28-1.438-5.244-3.135-0.965-1.69-1.309-3.424-1.033-5.201v0c0.064-0.415 0.17-0.873 0.317-1.373 0.148-0.507 0.299-1.027 0.452-1.561v0c-3.564 3.511-6.715 6.072-9.454 7.683-2.739 1.611-5.374 2.22-7.907 1.827z" fill="#ffffff" data-fill-palette-color="accent"></path><path d="M225.839 348.115v0c-2.254 0.687-4.209 0.628-5.866-0.178-1.655-0.799-2.775-2.157-3.359-4.075v0c-0.607-1.99-0.779-4.221-0.517-6.692 0.262-2.471 0.51-4.92 0.743-7.345 0.239-2.428 0.097-4.502-0.427-6.222v0c-0.647-2.122-1.74-3.51-3.279-4.165-1.539-0.654-3.069-1.221-4.591-1.701v0c-0.329 4.378-0.789 8.577-1.379 12.596-0.583 4.017-1.134 7.079-1.65 9.188v0l-1.415-1.416c0.405-2.003 0.847-4.889 1.326-8.658 0.486-3.771 0.81-8 0.973-12.687v0c-0.866-0.456-1.441-1.149-1.725-2.078v0c-0.607-1.99-0.538-3.786 0.205-5.388 0.743-1.602 1.382-2.485 1.916-2.648v0c0.725-0.221 1.235-0.034 1.531 0.56 0.292 0.603 0.488 1.068 0.588 1.398v0c0.1 0.329 0.113 1.032 0.037 2.106-0.069 1.073-0.074 1.708-0.013 1.905v0c0.283 0.929 1.055 1.619 2.316 2.071 1.261 0.451 2.699 0.953 4.315 1.504 1.618 0.558 3.148 1.36 4.59 2.404 1.444 1.051 2.489 2.637 3.136 4.759v0c0.605 1.984 0.805 4.13 0.601 6.439-0.197 2.307-0.428 4.516-0.691 6.628-0.266 2.105-0.186 3.856 0.24 5.252v0c0.364 1.193 0.905 1.895 1.625 2.108 0.714 0.215 1.469 0.2 2.267-0.042v0c1.588-0.484 3.078-1.478 4.47-2.983 1.384-1.509 2.64-3.271 3.769-5.287 1.124-2.006 2.057-4.048 2.8-6.125 0.744-2.071 1.195-3.926 1.35-5.565v0l1.596 0.594c-0.409 3.171-1.299 6.431-2.669 9.78-1.37 3.349-3.137 6.296-5.299 8.843-2.156 2.544-4.66 4.251-7.514 5.12z" fill="#ffffff" data-fill-palette-color="accent"></path><path d="M283.362 321.4v0c-2.436 2.164-4.836 3.348-7.2 3.55-2.369 0.207-4.543-0.202-6.522-1.227-1.974-1.029-3.652-2.321-5.034-3.877v0c-1.382-1.555-2.233-2.928-2.554-4.118-0.32-1.2-0.369-2.271-0.146-3.214 0.231-0.943 0.526-1.762 0.884-2.459 0.358-0.686 0.551-1.226 0.579-1.62v0c0.031-3.087-0.133-6.139-0.492-9.157-0.364-3.013-0.973-5.996-1.829-8.95v0l-0.823-0.927c-1.707-1.921-2.595-3.569-2.666-4.944-0.06-1.375 0.273-2.385 0.999-3.03v0c0.412-0.366 0.815-0.54 1.209-0.522 0.389 0.023 0.698 0.163 0.927 0.421v0c0.233 0.263 0.524 0.746 0.873 1.45 0.348 0.713 0.914 1.511 1.696 2.391v0c1.519 1.71 3.502 3.261 5.947 4.655 2.446 1.394 4.985 2.893 7.618 4.497 2.629 1.6 5.002 3.592 7.121 5.976v0c0.599 0.675 1.146 1.373 1.64 2.095 0.495 0.712 0.919 1.423 1.273 2.132v0c1.538-1.92 2.523-4.255 2.953-7.006 0.435-2.746 0.115-6.239-0.962-10.48v0l1.388 0.162c1.547 3.722 1.993 7.196 1.339 10.422-0.654 3.226-1.987 6.056-3.999 8.489v0c1.152 2.967 1.295 5.761 0.427 8.384-0.867 2.623-2.416 4.925-4.646 6.907zM281.101 318.544v0c0.623-0.554 1.267-1.499 1.931-2.836 0.669-1.332 0.53-3.106-0.418-5.324v0c-2.539 1.519-5.228 2.378-8.064 2.576-2.833 0.204-5.24 0.025-7.223-0.536v0c-1.098 1.067-0.864 2.482 0.702 4.243v0c1.656 1.864 3.746 3.09 6.268 3.678 2.517 0.593 4.785-0.008 6.804-1.801zM281.896 308.797v0c-0.354-0.616-0.757-1.23-1.209-1.843-0.456-0.617-1.03-1.315-1.721-2.093v0c-2.164-2.436-4.614-4.591-7.348-6.465-2.739-1.879-5.257-3.697-7.555-5.452v0c0.553 3.029 0.965 6.023 1.234 8.981 0.264 2.963 0.33 5.568 0.198 7.814v0c2.251 0.967 4.838 1.452 7.761 1.454 2.918-0.003 5.798-0.802 8.64-2.396z" fill="#ffffff" data-fill-palette-color="accent"></path><path d="M324.564 271.09v0c-0.489 1.222-1.905 1.776-4.248 1.662-2.344-0.114-4.801-0.685-7.373-1.714v0c-3.089-1.236-6.552-3.218-10.386-5.947-3.835-2.729-7.765-5.87-11.79-9.424-4.027-3.548-7.874-7.268-11.54-11.161-3.673-3.896-6.904-7.67-9.694-11.324-2.79-3.654-4.892-6.884-6.307-9.69-1.415-2.807-1.839-4.917-1.274-6.331v0c0.463-1.158 1.483-1.703 3.058-1.637 1.574 0.073 3.003 0.367 4.289 0.881v0c1.804 0.722 3.83 2 6.079 3.834 2.258 1.831 4.564 4.041 6.92 6.63 2.364 2.585 4.589 5.379 6.675 8.381 2.083 2.992 3.863 6.053 5.342 9.182 1.472 3.127 2.432 6.089 2.878 8.886v0c1.561 1.515 3.389 3.01 5.485 4.487 2.098 1.47 4.204 2.78 6.319 3.93 2.117 1.144 4.046 2.064 5.785 2.76v0c0.704 0.281 1.321 0.51 1.852 0.685 0.524 0.173 1.027 0.318 1.506 0.435v0c-2.281-1.959-4.447-3.964-6.497-6.016-2.051-2.052-3.877-4.107-5.48-6.165-1.603-2.058-2.917-4.098-3.942-6.118-1.021-2.011-1.658-3.961-1.911-5.851-0.251-1.896-0.029-3.711 0.664-5.444v0c0.722-1.804 1.73-3.063 3.025-3.776 1.295-0.714 2.697-1.047 4.206-1 1.512 0.041 2.978 0.345 4.398 0.914v0c1.989 0.796 3.782 1.906 5.379 3.331 1.599 1.419 3.126 2.831 4.582 4.237 1.449 1.403 2.98 2.428 4.592 3.073v0c1.286 0.514 2.326 0.612 3.122 0.291 0.8-0.311 1.367-0.885 1.702-1.723v0c0.594-1.484 0.55-3.423-0.132-5.818-0.686-2.404-1.841-4.977-3.468-7.72-1.628-2.736-3.57-5.301-5.825-7.695v0l1.664-0.792c2.614 2.611 4.804 5.39 6.57 8.338 1.773 2.95 2.935 5.878 3.486 8.784 0.551 2.907 0.325 5.613-0.677 8.121v0c-0.875 2.188-2.117 3.613-3.725 4.276-1.608 0.663-3.279 0.647-5.012-0.047v0c-1.356-0.542-2.766-1.403-4.232-2.583-1.469-1.188-2.974-2.369-4.515-3.542-1.545-1.182-3.089-2.081-4.63-2.698v0c-1.676-0.67-3.011-0.793-4.005-0.367-0.988 0.429-1.687 1.158-2.099 2.188v0c-0.642 1.605-0.578 3.308 0.194 5.108 0.769 1.806 1.955 3.646 3.557 5.519 1.603 1.873 3.345 3.723 5.225 5.551 1.878 1.835 3.663 3.576 5.356 5.226 1.692 1.649 3.014 3.15 3.964 4.502 0.953 1.346 1.249 2.47 0.888 3.371zM293.935 250.557v0c-0.698-2.372-1.801-4.846-3.308-7.423-1.504-2.583-3.199-5.108-5.083-7.576-1.882-2.474-3.784-4.767-5.706-6.879-1.916-2.11-3.709-3.869-5.379-5.279-1.673-1.419-2.993-2.321-3.959-2.708v0c-0.32-0.128-0.544-0.18-0.671-0.157-0.122 0.026-0.208 0.102-0.259 0.23v0c-0.182 0.454 0.337 1.726 1.556 3.817 1.219 2.09 2.945 4.629 5.179 7.614 2.243 2.982 4.883 6.09 7.923 9.324 3.033 3.232 6.269 6.244 9.707 9.037z" fill="#ffffff" data-fill-palette-color="accent"></path><path d="M5.145 182.684c0-17.698 14.347-32.046 32.046-32.046 17.698 0 32.046 14.347 32.045 32.046 0 17.698-14.347 32.046-32.045 32.045-17.698 0-32.046-14.347-32.046-32.045z" fill="#ffffff" data-fill-palette-color="accent"></path><path d="M290.423 182.684c0-17.698 14.347-32.046 32.045-32.046 17.698 0 32.046 14.347 32.046 32.046 0 17.698-14.347 32.046-32.046 32.045-17.698 0-32.046-14.347-32.045-32.045z" fill="#ffffff" data-fill-palette-color="accent"></path></g></svg></g></svg></g></svg></g><defs></defs></svg><rect width="395.52" height="170.0079913686406" fill="none" stroke="none" visibility="hidden"></rect></g></svg></g></svg>